<svg version="1.1" id="Layer_1" xmlns="http://www.w3.org/2000/svg" xmlns:xlink="http://www.w3.org/1999/xlink" x="0px" y="0px"
	 width="100%" viewBox="0 0 1024 1024" enable-background="new 0 0 1024 1024" xml:space="preserve">
<path fill="#000000" opacity="1.000000" stroke="none" 
	d="
M360.145233,167.675659 
	C377.520111,172.357742 393.336334,179.673798 408.251312,188.613480 
	C410.489655,187.193176 410.887451,185.119324 411.697144,183.367691 
	C428.548584,146.912872 452.228485,115.769783 483.736023,90.724518 
	C490.654358,85.225143 498.056305,80.424271 505.530487,75.700134 
	C510.206818,72.744431 514.145020,72.732567 518.841431,75.627693 
	C537.136353,86.905769 553.320801,100.635056 567.793640,116.480125 
	C587.097351,137.614059 602.183655,161.394241 613.032776,187.872345 
	C613.407288,188.786346 613.598694,189.819183 615.223328,190.525208 
	C617.735840,189.090607 620.594849,187.482376 623.431030,185.835037 
	C648.608582,171.211258 675.819214,163.096939 704.747498,160.627762 
	C712.390137,159.975418 714.418945,161.227280 717.354065,168.428543 
	C725.229614,187.750992 731.067932,207.693130 734.177490,228.340591 
	C736.408936,243.157944 737.616638,258.082733 737.310059,273.105103 
	C736.828308,296.711914 733.417786,319.809265 725.704895,342.197968 
	C725.179321,343.723450 724.189880,345.209534 724.869019,347.510864 
	C729.944336,349.613617 735.790344,348.204865 741.213684,349.608063 
	C746.355347,350.938354 751.667603,351.630249 756.776123,353.062103 
	C763.139587,354.845734 765.079956,357.628784 765.221802,364.313934 
	C765.441650,374.675659 764.349731,384.948792 762.015869,395.013885 
	C761.136597,398.805786 762.291931,400.160828 765.618103,401.040833 
	C768.018860,401.675934 770.340210,402.673767 772.624329,403.675415 
	C780.672729,407.204926 781.849915,409.411804 779.829590,418.066833 
	C775.793518,435.357880 767.734436,450.786957 757.649536,465.250061 
	C756.431763,466.996399 754.829041,468.531891 754.416504,471.301544 
	C758.515808,473.810852 762.723389,476.404846 766.948730,478.969482 
	C779.031433,486.303253 784.013733,496.317322 781.790100,510.904297 
	C778.786804,530.605896 777.376831,550.550537 775.287354,570.391296 
	C773.859070,583.952698 772.281677,597.500732 771.066223,611.081177 
	C770.191772,620.852051 765.388306,628.345581 756.594421,631.565552 
	C746.624817,635.216125 744.445862,642.079163 743.085205,651.470825 
	C738.414978,683.704773 732.846130,715.808044 727.680420,747.970886 
	C722.855652,778.011292 718.110046,808.064392 713.325989,838.111267 
	C709.903442,859.606995 706.519348,881.108948 703.018921,902.591980 
	C702.088989,908.299255 698.777222,912.633179 694.245605,916.084473 
	C681.381775,925.881592 666.310364,930.790222 651.090088,935.176514 
	C626.223450,942.342651 600.693176,945.745605 575.005798,948.488464 
	C547.098083,951.468384 519.125366,952.177185 491.170197,951.139893 
	C447.021332,949.501831 403.126221,945.401245 360.858612,931.221863 
	C354.246765,929.003784 347.883087,926.033752 341.440125,923.326965 
	C327.512085,917.475586 320.359100,907.623352 318.426697,891.963196 
	C314.664276,861.472412 308.987915,831.217529 304.085785,800.867859 
	C298.972137,769.208557 293.816071,737.556030 288.717926,705.894226 
	C285.232208,684.246460 281.802277,662.589539 278.380005,640.931641 
	C277.933167,638.103638 276.811707,636.008972 273.888367,634.998169 
	C272.017151,634.351196 270.312164,633.225037 268.529968,632.318909 
	C259.317352,627.634644 253.635498,620.849670 252.761475,609.908569 
	C251.120316,589.364563 248.717041,568.881775 246.654785,548.371033 
	C245.257980,534.478699 244.158997,520.550476 242.444016,506.698151 
	C241.159058,496.319305 245.162735,488.612335 252.892319,482.295532 
	C257.941528,478.169189 263.856567,475.409821 269.539673,471.997070 
	C269.302979,468.997620 267.263885,467.099976 265.796906,464.995911 
	C255.140671,449.711975 246.483841,433.515167 242.253952,415.184662 
	C239.925583,405.094574 240.789948,402.800446 249.867859,397.990723 
	C267.550751,388.621887 286.482697,384.108582 306.432617,383.697510 
	C310.882416,383.605835 315.335693,383.684052 319.852448,383.684052 
	C319.850708,380.881165 318.524261,379.291687 317.507263,377.654755 
	C301.394531,351.720886 292.281708,323.472015 289.577209,293.127625 
	C285.841278,251.209946 290.757446,210.433395 306.012054,171.067947 
	C309.831787,161.210861 312.122467,159.724854 323.008667,160.792313 
	C335.434509,162.010773 347.728882,164.093918 360.145233,167.675659 
M605.927734,663.485291 
	C587.891846,665.607849 569.756165,666.482849 551.633728,666.960022 
	C499.826416,668.324402 448.096497,667.167236 396.513855,661.477478 
	C366.403503,658.156189 336.520294,653.739685 307.198853,645.968140 
	C305.703369,645.571838 304.168518,644.450378 302.484528,645.819031 
	C308.165771,681.427551 313.824646,717.012878 319.524628,752.591614 
	C326.146393,793.924194 332.818756,835.248779 339.440735,876.581360 
	C343.156860,899.776428 343.060333,899.973633 365.137512,908.050354 
	C397.972687,920.062866 432.363586,924.050659 466.916992,926.561829 
	C495.338104,928.627380 523.811279,928.680237 552.293457,926.866028 
	C577.059265,925.288574 601.668457,922.625610 625.945679,917.491028 
	C643.547668,913.768311 660.987854,909.371948 676.753296,900.133728 
	C679.060181,898.781921 680.443604,897.320251 680.887634,894.457947 
	C684.348999,872.142578 688.022156,849.860229 691.608276,827.564148 
	C695.009827,806.415771 698.375427,785.261658 701.774841,764.112976 
	C706.281311,736.076904 710.895325,708.057678 715.277588,680.002319 
	C717.037781,668.733887 719.342712,657.529785 720.284851,645.367371 
	C717.461670,645.996460 715.079468,646.467041 712.728149,647.060425 
	C677.948608,655.836487 642.550781,660.602661 605.927734,663.485291 
M751.344482,577.019714 
	C752.882568,561.524658 754.420654,546.029602 755.935852,530.765259 
	C754.036194,529.884216 753.055847,530.679626 752.044312,531.189087 
	C736.450623,539.043274 719.714661,543.450378 702.822937,547.286621 
	C668.842896,555.003845 634.339722,558.843994 599.635132,561.547302 
	C568.882812,563.942871 538.117920,564.440735 507.307831,564.486694 
	C462.643677,564.553406 418.145111,562.202271 373.841461,556.382263 
	C350.248962,553.283020 326.876190,549.145264 303.918671,542.786865 
	C291.724945,539.409668 280.018250,534.712646 267.787750,529.442322 
	C268.469849,536.174255 269.069977,542.230652 269.699371,548.283997 
	C271.573364,566.307251 273.599640,584.316406 275.246155,602.360291 
	C275.686798,607.189026 277.347198,610.319763 281.880768,612.389893 
	C296.359253,619.000793 311.584198,623.179260 327.012695,626.707642 
	C375.879669,637.883179 425.625427,641.942505 475.524475,643.421265 
	C519.957764,644.738037 564.423950,644.199707 608.779236,639.882446 
	C635.766479,637.255554 662.675842,634.323792 689.212280,628.648865 
	C706.955566,624.854431 724.532166,620.532715 741.292847,613.256348 
	C746.583313,610.959534 748.310486,607.431580 748.713623,602.220886 
	C749.341614,594.102478 750.303284,586.009827 751.344482,577.019714 
M481.161011,263.710052 
	C488.000885,254.642899 495.436371,246.113571 504.212738,238.858429 
	C510.809265,233.405258 512.213806,233.394745 519.033142,238.263412 
	C535.449219,249.983643 549.402039,264.135437 561.107178,280.573761 
	C566.896484,288.704132 571.567139,297.493591 576.600586,306.475189 
	C585.699402,301.841431 594.169067,296.840973 603.424377,293.524872 
	C605.572021,292.755371 605.661621,290.916229 605.869751,289.049744 
	C607.746155,272.218018 606.925720,255.498123 603.790955,238.880951 
	C592.895508,181.125336 563.035828,135.513489 515.640747,101.081375 
	C512.777893,99.001541 510.831177,99.455406 508.145691,101.348801 
	C482.864594,119.173187 462.321289,141.403259 446.162750,167.709869 
	C425.705475,201.014984 414.350922,237.086304 413.278259,276.297729 
	C413.162506,280.529755 414.657532,282.139648 418.747437,282.748932 
	C429.796692,284.394897 440.531067,287.360474 451.038513,291.197266 
	C454.710175,292.537964 458.011993,295.024078 462.267395,295.231323 
	C467.698883,284.363892 473.562836,273.926666 481.161011,263.710052 
M389.028320,293.604858 
	C390.443237,290.502655 390.748138,287.241974 390.680664,283.860657 
	C390.441467,271.872192 390.824493,259.918213 392.625092,248.028091 
	C394.219116,237.502411 396.067810,227.034348 399.335022,216.887039 
	C400.562561,213.074493 400.287018,210.574677 396.224518,208.477798 
	C389.423859,204.967575 382.835938,201.059921 375.790314,198.001846 
	C361.973724,192.004883 347.613434,187.878555 332.763367,185.539200 
	C329.427216,185.013641 325.726776,183.765396 323.987030,189.170532 
	C313.135193,222.885818 308.916351,257.325775 312.496735,292.571045 
	C316.172546,328.755737 330.652191,360.444275 353.637146,388.402405 
	C354.568390,389.535156 355.701691,390.796967 357.006897,391.280212 
	C367.110809,395.021057 376.944366,399.380402 387.483551,404.642853 
	C374.717804,367.153717 375.909241,330.654907 389.028320,293.604858 
M554.211121,358.680786 
	C543.641907,372.924744 536.645996,388.788300 532.702271,406.044159 
	C530.006775,417.838165 529.882996,429.806213 530.529663,441.780823 
	C530.680481,444.572235 530.193970,448.242432 535.069153,448.719635 
	C549.235107,450.106201 562.800964,454.015350 575.905029,459.494110 
	C578.415710,460.543823 580.479187,460.671753 582.932312,459.260376 
	C636.553345,428.410156 664.647156,370.759766 657.597168,310.773315 
	C657.229004,307.640930 655.973877,305.795074 652.492737,306.220551 
	C649.361511,306.603302 646.203186,306.781219 643.081848,307.225494 
	C606.817871,312.387421 577.088684,328.932983 554.211121,358.680786 
M492.792358,449.957092 
	C495.419586,449.542694 498.034027,448.996643 500.676544,448.739319 
	C507.739075,448.051575 508.134888,447.765411 507.573669,440.953644 
	C505.910614,420.768524 508.628784,401.159576 515.292542,382.089600 
	C516.208252,379.469238 515.908264,377.490540 514.559875,375.107239 
	C505.327118,358.788086 493.364777,344.840027 478.448547,333.519043 
	C459.148376,318.870758 437.784882,309.011475 413.467590,306.139923 
	C410.609406,305.802368 409.200806,306.477142 408.332153,309.235626 
	C401.361786,331.370209 399.383148,353.843018 403.945404,376.683411 
	C410.814819,411.074402 429.646820,437.570618 457.901428,457.795776 
	C459.908142,459.232208 461.493835,459.448364 463.799377,458.498138 
	C472.889282,454.751770 482.303040,452.016541 492.792358,449.957092 
M313.421844,407.307251 
	C297.296692,406.798981 281.650482,408.788330 266.808075,415.832794 
	C266.971588,416.868408 266.995270,417.532532 267.189026,418.142639 
	C267.641327,419.566711 268.084320,421.005280 268.689575,422.367554 
	C285.606476,460.444427 312.364502,488.963715 350.870453,505.558380 
	C373.854492,515.463623 398.036560,519.286865 423.040161,516.535706 
	C426.462830,516.159119 430.292023,516.291016 433.329132,513.657959 
	C429.379120,506.400421 425.586121,499.380615 423.272644,491.670624 
	C421.871552,487.001251 422.619751,482.898163 426.636230,480.113647 
	C430.168610,477.664795 429.845062,475.574036 427.685760,472.340576 
	C415.924561,454.728729 400.896545,440.524353 382.912109,429.526306 
	C361.889984,416.670746 339.328979,408.250061 313.421844,407.307251 
M678.521729,362.835419 
	C677.115173,372.391876 673.438782,381.363190 670.440857,391.495880 
	C671.753784,390.492432 672.184265,390.239014 672.518127,389.892517 
	C673.210022,389.174408 673.889465,388.437592 674.506653,387.655273 
	C700.927856,354.161438 713.560425,315.735046 714.567322,273.420380 
	C715.205322,246.607300 710.620361,220.411469 702.453796,194.912659 
	C699.155701,184.614838 701.823303,183.780487 688.040771,186.345779 
	C665.661194,190.511215 645.005676,198.915756 626.117004,211.671585 
	C623.327026,213.555679 622.082764,215.351044 623.029297,219.039551 
	C624.841553,226.101608 626.065369,233.325226 627.306519,240.520935 
	C629.547913,253.515488 629.876648,266.624969 629.383972,279.778473 
	C629.160767,285.737305 629.281921,285.814728 634.963745,284.785797 
	C645.655701,282.849518 656.433838,282.363281 667.268799,282.645813 
	C673.507812,282.808502 675.973816,284.623474 677.374451,290.783997 
	C682.749207,314.423431 683.669434,338.170166 678.521729,362.835419 
M637.189575,450.700958 
	C628.121033,457.894501 620.496338,466.470734 613.479004,475.610138 
	C612.354797,477.074371 610.140930,478.781372 612.192932,480.774628 
	C617.102966,485.544006 615.097290,490.433838 612.961914,495.467682 
	C609.733704,503.077423 605.697388,510.254486 600.327515,517.752075 
	C636.392517,523.153442 668.059082,514.364258 696.847046,494.709320 
	C723.044373,476.823090 742.049133,452.958130 753.693176,423.560303 
	C751.867371,421.891846 750.392151,421.650238 748.935486,421.289001 
	C734.996826,417.832245 720.915588,417.761078 706.815796,419.814667 
	C681.004517,423.573944 658.076172,433.998932 637.189575,450.700958 
M470.606506,481.189301 
	C464.432678,483.760956 458.782593,487.265991 453.069397,490.706024 
	C449.529968,492.837158 448.985291,494.753418 451.307312,498.215454 
	C458.723755,509.273132 467.583221,518.895813 478.614502,526.391846 
	C493.830933,536.731750 510.474213,541.415161 528.829468,538.000610 
	C553.631104,533.386963 571.307922,518.503723 585.354614,498.388855 
	C587.986938,494.619324 587.604553,492.645142 583.614624,490.230743 
	C547.689026,468.491241 510.323456,465.018616 470.606506,481.189301 
M496.435181,318.027985 
	C508.914642,328.001709 519.206848,340.081116 529.066833,353.379852 
	C536.941650,342.567596 544.440247,332.807159 553.716736,324.663483 
	C556.522095,322.200684 556.586365,319.943054 555.114075,316.853394 
	C551.672302,309.630707 547.787903,302.671722 543.365295,296.012878 
	C535.766357,284.571625 526.475464,274.624329 516.215698,265.557861 
	C514.700195,264.218597 513.084290,262.068909 510.778564,264.592255 
	C499.702240,276.713867 490.513489,290.077271 483.940216,305.183472 
	C482.993164,307.360016 483.878693,308.540558 485.546478,309.758240 
	C489.035980,312.305939 492.426880,314.988770 496.435181,318.027985 
M720.708130,395.069458 
	C724.521118,395.235504 728.341797,395.302765 732.144409,395.600891 
	C734.857910,395.813629 736.646484,395.009186 737.292786,392.202423 
	C738.370850,387.520325 739.600952,382.870728 740.567749,378.166443 
	C741.083862,375.654938 740.566040,373.877228 737.332764,373.225067 
	C729.895752,371.725037 722.444031,372.340149 714.987793,372.334381 
	C713.749207,372.333405 712.702576,372.729523 712.010742,373.814667 
	C707.072388,381.559967 702.137878,389.307709 696.655579,397.912537 
	C704.937622,396.080750 712.377991,395.782867 720.708130,395.069458 
z"/>
<path fill="#000000" opacity="1.000000" stroke="none" 
	d="
M578.510864,882.116760 
	C584.431641,879.554504 589.323120,880.729065 593.378479,885.027100 
	C597.106934,888.978638 597.666931,894.462952 595.181885,899.360168 
	C592.707581,904.236328 588.332581,906.750793 583.037659,906.339966 
	C578.028015,905.951294 573.119934,901.904297 571.807312,897.080017 
	C570.181213,891.103271 572.311096,886.140564 578.510864,882.116760 
z"/>
<path fill="#000000" opacity="1.000000" stroke="none" 
	d="
M629.588745,873.231934 
	C637.654236,870.812073 644.439575,874.000000 646.837524,880.987854 
	C648.899719,886.997070 645.646912,893.880432 639.460876,896.597900 
	C633.536682,899.200317 626.780334,896.875427 623.638367,891.153137 
	C619.974426,884.480042 621.986816,878.114807 629.588745,873.231934 
z"/>
</svg>